<svg width="24" height="22" viewBox="0 0 24 22" fill="none" xmlns="http://www.w3.org/2000/svg">
<path d="M6.204 3.4H6.64444L6.94177 3.07506L8.84044 1H15.1596L17.0582 3.07506L17.3556 3.4H17.796H21.6C22.3677 3.4 23 4.03228 23 4.8V19.2C23 19.9677 22.3677 20.6 21.6 20.6H2.4C1.63228 20.6 1 19.9677 1 19.2V4.8C1 4.03228 1.63228 3.4 2.4 3.4H6.204ZM14.84 12C14.84 13.5685 13.5685 14.84 12 14.84C10.4315 14.84 9.15999 13.5685 9.15999 12C9.15999 10.4315 10.4315 9.15999 12 9.15999C13.5685 9.15999 14.84 10.4315 14.84 12ZM5 12C5 15.8643 8.13571 19 12 19C15.8643 19 19 15.8643 19 12C19 8.13571 15.8643 5 12 5C8.13571 5 5 8.13571 5 12Z" fill="white" stroke="#294F50" stroke-width="2"/>
</svg>
