<svg width="122" height="97" viewBox="0 0 122 97" fill="none" xmlns="http://www.w3.org/2000/svg">
<path d="M30.2353 67.6706L33.0827 69.838C25.4898 71.0421 11.7276 65.0215 16.9477 58.5194C22.1678 52.0172 36.8791 53.703 40.6755 55.3887C44.472 57.0745 62.7302 70.6615 70.7977 73.9319C79.1146 77.3034 96.4237 79.9524 111.384 73.2094C126.345 66.4665 121.825 56.1112 109.961 50.3315C98.0968 44.5518 85.9165 46.3178 79.1146 47.9233L76.2672 45.5151L66.3016 57.5561L91.9276 56.1112L88.1311 54.1846L90.5039 53.703C100.944 52.9805 111.384 62.1317 100.944 67.1889C90.5039 72.2462 81.0128 68.8747 75.3181 65.5032C69.6235 62.1317 56.3359 52.4025 48.743 49.1274C39.2519 45.0334 25.9643 45.9967 20.7442 46.96C15.5241 47.9233 5.55843 50.8131 1.76198 57.5561C-2.03447 64.2991 3.66021 69.838 12.2022 73.9319C19.0358 77.2071 35.2973 76.7415 42.5738 76.0993L46.3703 78.0259L54.9123 66.4665L30.2353 67.6706Z" fill="#DBAB61" stroke="#DBAB61"/>
<path d="M72.5423 16.6265L63.0458 51.0258L34.5248 29.5771L72.5423 16.6265Z" fill="#DBAB61" stroke="#DBAB61" stroke-width="5"/>
<path d="M80.636 83.22C80.972 83.22 81.242 83.328 81.446 83.544C81.65 83.748 81.752 84.024 81.752 84.372V95.028C81.752 95.364 81.656 95.628 81.464 95.82C81.272 96.012 81.02 96.108 80.708 96.108C80.396 96.108 80.15 96.012 79.97 95.82C79.79 95.628 79.7 95.364 79.7 95.028V87.612L76.64 93.408C76.496 93.672 76.34 93.87 76.172 94.002C76.004 94.122 75.806 94.182 75.578 94.182C75.35 94.182 75.152 94.122 74.984 94.002C74.816 93.882 74.66 93.684 74.516 93.408L71.438 87.702V95.028C71.438 95.352 71.342 95.616 71.15 95.82C70.97 96.012 70.724 96.108 70.412 96.108C70.1 96.108 69.854 96.012 69.674 95.82C69.494 95.628 69.404 95.364 69.404 95.028V84.372C69.404 84.024 69.5 83.748 69.692 83.544C69.896 83.328 70.166 83.22 70.502 83.22C70.97 83.22 71.336 83.478 71.6 83.994L75.596 91.608L79.574 83.994C79.838 83.478 80.192 83.22 80.636 83.22ZM96.0048 94.614C96.0768 94.77 96.1128 94.926 96.1128 95.082C96.1128 95.358 95.9988 95.592 95.7708 95.784C95.5548 95.976 95.3028 96.072 95.0148 96.072C94.8228 96.072 94.6428 96.024 94.4748 95.928C94.3068 95.82 94.1748 95.658 94.0788 95.442L92.9988 93.03H86.6628L85.5828 95.442C85.4868 95.658 85.3548 95.82 85.1868 95.928C85.0188 96.024 84.8328 96.072 84.6288 96.072C84.3528 96.072 84.1008 95.976 83.8728 95.784C83.6448 95.592 83.5308 95.358 83.5308 95.082C83.5308 94.926 83.5668 94.77 83.6388 94.614L88.6068 83.94C88.7148 83.7 88.8768 83.52 89.0928 83.4C89.3208 83.268 89.5608 83.202 89.8128 83.202C90.0648 83.202 90.2988 83.268 90.5148 83.4C90.7428 83.52 90.9108 83.7 91.0188 83.94L96.0048 94.614ZM87.4548 91.23H92.2068L89.8308 85.884L87.4548 91.23ZM100.456 96.09C100.096 96.09 99.8077 95.988 99.5917 95.784C99.3877 95.568 99.2857 95.286 99.2857 94.938V85.218H96.0097C95.2897 85.218 94.9297 84.9 94.9297 84.264C94.9297 83.628 95.2897 83.31 96.0097 83.31H104.884C105.604 83.31 105.964 83.628 105.964 84.264C105.964 84.9 105.604 85.218 104.884 85.218H101.608V94.938C101.608 95.286 101.5 95.568 101.284 95.784C101.08 95.988 100.804 96.09 100.456 96.09ZM108.453 96C108.105 96 107.829 95.904 107.625 95.712C107.433 95.52 107.337 95.25 107.337 94.902V84.408C107.337 84.06 107.433 83.79 107.625 83.598C107.829 83.406 108.105 83.31 108.453 83.31H114.951C115.299 83.31 115.569 83.388 115.761 83.544C115.953 83.7 116.049 83.922 116.049 84.21C116.049 84.51 115.953 84.744 115.761 84.912C115.569 85.068 115.299 85.146 114.951 85.146H109.605V88.638H114.591C114.939 88.638 115.209 88.716 115.401 88.872C115.593 89.028 115.689 89.256 115.689 89.556C115.689 89.844 115.593 90.066 115.401 90.222C115.209 90.378 114.939 90.456 114.591 90.456H109.605V94.164H114.951C115.299 94.164 115.569 94.248 115.761 94.416C115.953 94.572 116.049 94.8 116.049 95.1C116.049 95.388 115.953 95.61 115.761 95.766C115.569 95.922 115.299 96 114.951 96H108.453Z" fill="#DBAB61"/>
<path d="M81.446 83.544L81.0825 83.8873L81.0874 83.8925L81.0924 83.8976L81.446 83.544ZM81.464 95.82L81.1104 95.4664L81.1104 95.4664L81.464 95.82ZM79.97 95.82L80.3348 95.478L80.3348 95.478L79.97 95.82ZM79.7 87.612H80.2L79.2578 87.3786L79.7 87.612ZM76.64 93.408L77.079 93.6474L77.0822 93.6414L76.64 93.408ZM76.172 94.002L76.4626 94.4089L76.4719 94.4022L76.4809 94.3952L76.172 94.002ZM74.984 94.002L75.2746 93.5951L75.2746 93.5951L74.984 94.002ZM74.516 93.408L74.9593 93.1767L74.9561 93.1706L74.516 93.408ZM71.438 87.702L71.8781 87.4646L70.938 87.702H71.438ZM71.15 95.82L70.7859 95.4773L70.7852 95.478L71.15 95.82ZM69.674 95.82L70.0388 95.478L70.0388 95.478L69.674 95.82ZM69.692 83.544L69.3285 83.2007L69.3279 83.2013L69.692 83.544ZM71.6 83.994L71.1549 84.2217L71.1573 84.2264L71.6 83.994ZM75.596 91.608L75.1533 91.8404L75.597 92.6858L76.0392 91.8395L75.596 91.608ZM79.574 83.994L80.0172 84.2255L80.0191 84.2217L79.574 83.994ZM80.636 83.72C80.8542 83.72 80.9857 83.7849 81.0825 83.8873L81.8095 83.2007C81.4983 82.8711 81.0898 82.72 80.636 82.72V83.72ZM81.0924 83.8976C81.1839 83.989 81.252 84.1274 81.252 84.372H82.252C82.252 83.9206 82.1161 83.507 81.7996 83.1904L81.0924 83.8976ZM81.252 84.372V95.028H82.252V84.372H81.252ZM81.252 95.028C81.252 95.2648 81.1875 95.3894 81.1104 95.4664L81.8176 96.1736C82.1245 95.8666 82.252 95.4632 82.252 95.028H81.252ZM81.1104 95.4664C81.0264 95.5505 80.9088 95.608 80.708 95.608V96.608C81.1312 96.608 81.5176 96.4735 81.8176 96.1736L81.1104 95.4664ZM80.708 95.608C80.5064 95.608 80.4028 95.5506 80.3348 95.478L79.6052 96.162C79.8972 96.4734 80.2856 96.608 80.708 96.608V95.608ZM80.3348 95.478C80.2638 95.4023 80.2 95.2735 80.2 95.028H79.2C79.2 95.4545 79.3162 95.8537 79.6052 96.162L80.3348 95.478ZM80.2 95.028V87.612H79.2V95.028H80.2ZM79.2578 87.3786L76.1978 93.1746L77.0822 93.6414L80.1422 87.8454L79.2578 87.3786ZM76.2011 93.1686C76.0772 93.3956 75.9607 93.5321 75.8631 93.6088L76.4809 94.3952C76.7193 94.2079 76.9148 93.9484 77.0789 93.6474L76.2011 93.1686ZM75.8814 93.5951C75.807 93.6483 75.7132 93.682 75.578 93.682V94.682C75.8988 94.682 76.201 94.5957 76.4626 94.4089L75.8814 93.5951ZM75.578 93.682C75.4428 93.682 75.349 93.6483 75.2746 93.5951L74.6934 94.4089C74.955 94.5957 75.2572 94.682 75.578 94.682V93.682ZM75.2746 93.5951C75.1949 93.5382 75.0838 93.4154 74.9593 93.1767L74.0727 93.6393C74.2362 93.9526 74.4371 94.2258 74.6934 94.4089L75.2746 93.5951ZM74.9561 93.1706L71.8781 87.4646L70.9979 87.9394L74.0759 93.6454L74.9561 93.1706ZM70.938 87.702V95.028H71.938V87.702H70.938ZM70.938 95.028C70.938 95.246 70.877 95.3805 70.7859 95.4773L71.5141 96.1627C71.807 95.8515 71.938 95.458 71.938 95.028H70.938ZM70.7852 95.478C70.7172 95.5506 70.6136 95.608 70.412 95.608V96.608C70.8344 96.608 71.2228 96.4734 71.5148 96.162L70.7852 95.478ZM70.412 95.608C70.2104 95.608 70.1068 95.5506 70.0388 95.478L69.3092 96.162C69.6012 96.4734 69.9896 96.608 70.412 96.608V95.608ZM70.0388 95.478C69.9678 95.4023 69.904 95.2735 69.904 95.028H68.904C68.904 95.4545 69.0202 95.8537 69.3092 96.162L70.0388 95.478ZM69.904 95.028V84.372H68.904V95.028H69.904ZM69.904 84.372C69.904 84.119 69.9713 83.9768 70.0561 83.8867L69.3279 83.2013C69.0287 83.5192 68.904 83.929 68.904 84.372H69.904ZM70.0555 83.8873C70.1523 83.7849 70.2838 83.72 70.502 83.72V82.72C70.0482 82.72 69.6397 82.8711 69.3285 83.2007L70.0555 83.8873ZM70.502 83.72C70.7342 83.72 70.952 83.8252 71.1549 84.2217L72.0451 83.7663C71.72 83.1308 71.2058 82.72 70.502 82.72V83.72ZM71.1573 84.2264L75.1533 91.8404L76.0387 91.3756L72.0427 83.7616L71.1573 84.2264ZM76.0392 91.8395L80.0172 84.2255L79.1308 83.7625L75.1528 91.3765L76.0392 91.8395ZM80.0191 84.2217C80.2283 83.8129 80.4387 83.72 80.636 83.72V82.72C79.9453 82.72 79.4477 83.1431 79.1289 83.7663L80.0191 84.2217ZM96.0048 94.614L96.4588 94.4045L96.4578 94.4024L96.0048 94.614ZM95.7708 95.784L95.4486 95.4014L95.4386 95.4103L95.7708 95.784ZM94.4748 95.928L94.2044 96.3486L94.2154 96.3556L94.2267 96.3621L94.4748 95.928ZM94.0788 95.442L94.5357 95.2389L94.5351 95.2377L94.0788 95.442ZM92.9988 93.03L93.4551 92.8257L93.3227 92.53H92.9988V93.03ZM86.6628 93.03V92.53H86.3388L86.2064 92.8257L86.6628 93.03ZM85.5828 95.442L85.1264 95.2377L85.1259 95.2389L85.5828 95.442ZM85.1868 95.928L85.4348 96.3621L85.4462 96.3556L85.4571 96.3486L85.1868 95.928ZM83.8728 95.784L83.5507 96.1665L83.5507 96.1665L83.8728 95.784ZM83.6388 94.614L83.1855 94.403L83.1848 94.4045L83.6388 94.614ZM88.6068 83.94L89.0601 84.151L89.0627 84.1452L88.6068 83.94ZM89.0928 83.4L89.3356 83.8371L89.3433 83.8327L89.0928 83.4ZM90.5148 83.4L90.254 83.8266L90.2677 83.835L90.2819 83.8425L90.5148 83.4ZM91.0188 83.94L90.5628 84.1452L90.5658 84.1516L91.0188 83.94ZM87.4548 91.23L86.9979 91.0269L86.6854 91.73H87.4548V91.23ZM92.2068 91.23V91.73H92.9761L92.6637 91.0269L92.2068 91.23ZM89.8308 85.884L90.2877 85.6809L89.8308 84.6529L89.3739 85.6809L89.8308 85.884ZM95.5508 94.8235C95.5956 94.9206 95.6128 95.0054 95.6128 95.082H96.6128C96.6128 94.8466 96.558 94.6194 96.4587 94.4045L95.5508 94.8235ZM95.6128 95.082C95.6128 95.1976 95.5741 95.2959 95.4487 95.4015L96.0928 96.1665C96.4234 95.8881 96.6128 95.5184 96.6128 95.082H95.6128ZM95.4386 95.4103C95.3138 95.5213 95.1798 95.572 95.0148 95.572V96.572C95.4257 96.572 95.7958 96.4307 96.1029 96.1577L95.4386 95.4103ZM95.0148 95.572C94.9105 95.572 94.8159 95.5471 94.7228 95.4939L94.2267 96.3621C94.4696 96.5009 94.735 96.572 95.0148 96.572V95.572ZM94.7451 95.5074C94.6733 95.4612 94.5994 95.3824 94.5357 95.2389L93.6219 95.6451C93.7501 95.9336 93.9402 96.1788 94.2044 96.3486L94.7451 95.5074ZM94.5351 95.2377L93.4551 92.8257L92.5424 93.2343L93.6224 95.6463L94.5351 95.2377ZM92.9988 92.53H86.6628V93.53H92.9988V92.53ZM86.2064 92.8257L85.1264 95.2377L86.0391 95.6463L87.1191 93.2343L86.2064 92.8257ZM85.1259 95.2389C85.0621 95.3824 84.9882 95.4612 84.9164 95.5074L85.4571 96.3486C85.7213 96.1788 85.9114 95.9336 86.0397 95.6451L85.1259 95.2389ZM84.9387 95.4939C84.8504 95.5443 84.7507 95.572 84.6288 95.572V96.572C84.9149 96.572 85.1871 96.5037 85.4348 96.3621L84.9387 95.4939ZM84.6288 95.572C84.4804 95.572 84.3404 95.5242 84.1948 95.4015L83.5507 96.1665C83.8611 96.4278 84.2251 96.572 84.6288 96.572V95.572ZM84.1948 95.4015C84.0694 95.2959 84.0308 95.1976 84.0308 95.082H83.0308C83.0308 95.5184 83.2201 95.8881 83.5507 96.1665L84.1948 95.4015ZM84.0308 95.082C84.0308 95.0054 84.048 94.9206 84.0927 94.8235L83.1848 94.4045C83.0856 94.6194 83.0308 94.8466 83.0308 95.082H84.0308ZM84.0921 94.825L89.0601 84.151L88.1535 83.729L83.1855 94.403L84.0921 94.825ZM89.0627 84.1452C89.1296 83.9966 89.2201 83.9012 89.3356 83.8371L88.8499 82.9629C88.5334 83.1388 88.3 83.4034 88.1508 83.7348L89.0627 84.1452ZM89.3433 83.8327C89.4988 83.7427 89.6528 83.702 89.8128 83.702V82.702C89.4687 82.702 89.1428 82.7933 88.8422 82.9673L89.3433 83.8327ZM89.8128 83.702C89.9723 83.702 90.1162 83.7424 90.254 83.8266L90.7755 82.9734C90.4814 82.7936 90.1572 82.702 89.8128 82.702V83.702ZM90.2819 83.8425C90.4089 83.9093 90.4995 84.0046 90.5628 84.1452L91.4747 83.7348C91.322 83.3954 91.0767 83.1307 90.7476 82.9575L90.2819 83.8425ZM90.5658 84.1516L95.5518 94.8256L96.4578 94.4024L91.4718 83.7284L90.5658 84.1516ZM87.4548 91.73H92.2068V90.73H87.4548V91.73ZM92.6637 91.0269L90.2877 85.6809L89.3739 86.0871L91.7499 91.4331L92.6637 91.0269ZM89.3739 85.6809L86.9979 91.0269L87.9117 91.4331L90.2877 86.0871L89.3739 85.6809ZM99.5917 95.784L99.2282 96.1273L99.238 96.1377L99.2484 96.1475L99.5917 95.784ZM99.2857 85.218H99.7857V84.718H99.2857V85.218ZM101.608 85.218V84.718H101.108V85.218H101.608ZM101.284 95.784L100.93 95.4304L100.93 95.4304L101.284 95.784ZM100.456 95.59C100.195 95.59 100.039 95.519 99.935 95.4205L99.2484 96.1475C99.5761 96.457 99.9966 96.59 100.456 96.59V95.59ZM99.9552 95.4407C99.8537 95.3332 99.7857 95.1817 99.7857 94.938H98.7857C98.7857 95.3903 98.9217 95.8028 99.2282 96.1273L99.9552 95.4407ZM99.7857 94.938V85.218H98.7857V94.938H99.7857ZM99.2857 84.718H96.0097V85.718H99.2857V84.718ZM96.0097 84.718C95.7126 84.718 95.5831 84.651 95.5307 84.6048C95.4902 84.5689 95.4297 84.4877 95.4297 84.264H94.4297C94.4297 84.6763 94.5492 85.0721 94.8687 85.3542C95.1763 85.626 95.5868 85.718 96.0097 85.718V84.718ZM95.4297 84.264C95.4297 84.0403 95.4902 83.9591 95.5307 83.9232C95.5831 83.877 95.7126 83.81 96.0097 83.81V82.81C95.5868 82.81 95.1763 82.902 94.8687 83.1738C94.5492 83.4559 94.4297 83.8517 94.4297 84.264H95.4297ZM96.0097 83.81H104.884V82.81H96.0097V83.81ZM104.884 83.81C105.181 83.81 105.31 83.877 105.363 83.9232C105.403 83.9591 105.464 84.0403 105.464 84.264H106.464C106.464 83.8517 106.344 83.4559 106.025 83.1738C105.717 82.902 105.307 82.81 104.884 82.81V83.81ZM105.464 84.264C105.464 84.4877 105.403 84.5689 105.363 84.6048C105.31 84.651 105.181 84.718 104.884 84.718V85.718C105.307 85.718 105.717 85.626 106.025 85.3542C106.344 85.0721 106.464 84.6763 106.464 84.264H105.464ZM104.884 84.718H101.608V85.718H104.884V84.718ZM101.108 85.218V94.938H102.108V85.218H101.108ZM101.108 94.938C101.108 95.1735 101.039 95.3215 100.93 95.4304L101.637 96.1376C101.96 95.8145 102.108 95.3985 102.108 94.938H101.108ZM100.93 95.4304C100.839 95.5219 100.7 95.59 100.456 95.59V96.59C100.907 96.59 101.321 96.4541 101.637 96.1376L100.93 95.4304ZM107.625 95.712L107.271 96.0656L107.277 96.0709L107.282 96.0761L107.625 95.712ZM107.625 83.598L107.282 83.2339L107.277 83.2391L107.271 83.2444L107.625 83.598ZM115.761 83.544L116.076 83.1559L116.076 83.1559L115.761 83.544ZM115.761 84.912L116.076 85.3001L116.083 85.2943L116.09 85.2883L115.761 84.912ZM109.605 85.146V84.646H109.105V85.146H109.605ZM109.605 88.638H109.105V89.138H109.605V88.638ZM115.401 88.872L115.716 88.4839L115.716 88.4839L115.401 88.872ZM115.401 90.222L115.716 90.6101L115.716 90.6101L115.401 90.222ZM109.605 90.456V89.956H109.105V90.456H109.605ZM109.605 94.164H109.105V94.664H109.605V94.164ZM115.761 94.416L115.431 94.7923L115.438 94.7983L115.445 94.8041L115.761 94.416ZM115.761 95.766L116.076 96.1541L116.076 96.1541L115.761 95.766ZM108.453 95.5C108.2 95.5 108.058 95.4327 107.967 95.3479L107.282 96.0761C107.6 96.3753 108.01 96.5 108.453 96.5V95.5ZM107.978 95.3584C107.905 95.2847 107.837 95.1565 107.837 94.902H106.837C106.837 95.3435 106.961 95.7553 107.271 96.0656L107.978 95.3584ZM107.837 94.902V84.408H106.837V94.902H107.837ZM107.837 84.408C107.837 84.1535 107.905 84.0253 107.978 83.9516L107.271 83.2444C106.961 83.5547 106.837 83.9665 106.837 84.408H107.837ZM107.967 83.9621C108.058 83.8773 108.2 83.81 108.453 83.81V82.81C108.01 82.81 107.6 82.9347 107.282 83.2339L107.967 83.9621ZM108.453 83.81H114.951V82.81H108.453V83.81ZM114.951 83.81C115.23 83.81 115.373 83.8729 115.445 83.9321L116.076 83.1559C115.765 82.9031 115.368 82.81 114.951 82.81V83.81ZM115.445 83.9321C115.501 83.9769 115.549 84.0449 115.549 84.21H116.549C116.549 83.7991 116.405 83.4231 116.076 83.1559L115.445 83.9321ZM115.549 84.21C115.549 84.3937 115.496 84.4796 115.431 84.5357L116.09 85.2883C116.41 85.0084 116.549 84.6263 116.549 84.21H115.549ZM115.445 84.5239C115.373 84.5831 115.23 84.646 114.951 84.646V85.646C115.368 85.646 115.765 85.5529 116.076 85.3001L115.445 84.5239ZM114.951 84.646H109.605V85.646H114.951V84.646ZM109.105 85.146V88.638H110.105V85.146H109.105ZM109.605 89.138H114.591V88.138H109.605V89.138ZM114.591 89.138C114.87 89.138 115.013 89.2009 115.085 89.2601L115.716 88.4839C115.405 88.2311 115.008 88.138 114.591 88.138V89.138ZM115.085 89.2601C115.136 89.3009 115.189 89.3712 115.189 89.556H116.189C116.189 89.1408 116.05 88.7551 115.716 88.4839L115.085 89.2601ZM115.189 89.556C115.189 89.7211 115.141 89.7891 115.085 89.8339L115.716 90.6101C116.045 90.3429 116.189 89.9669 116.189 89.556H115.189ZM115.085 89.8339C115.013 89.8931 114.87 89.956 114.591 89.956V90.956C115.008 90.956 115.405 90.8629 115.716 90.6101L115.085 89.8339ZM114.591 89.956H109.605V90.956H114.591V89.956ZM109.105 90.456V94.164H110.105V90.456H109.105ZM109.605 94.664H114.951V93.664H109.605V94.664ZM114.951 94.664C115.222 94.664 115.359 94.729 115.431 94.7923L116.09 94.0397C115.778 93.767 115.376 93.664 114.951 93.664V94.664ZM115.445 94.8041C115.496 94.8449 115.549 94.9152 115.549 95.1H116.549C116.549 94.6848 116.41 94.2991 116.076 94.0279L115.445 94.8041ZM115.549 95.1C115.549 95.2651 115.501 95.3331 115.445 95.3779L116.076 96.1541C116.405 95.8869 116.549 95.5109 116.549 95.1H115.549ZM115.445 95.3779C115.373 95.4371 115.23 95.5 114.951 95.5V96.5C115.368 96.5 115.765 96.4069 116.076 96.1541L115.445 95.3779ZM114.951 95.5H108.453V96.5H114.951V95.5Z" fill="#DBAB61"/>
<path d="M14.912 96.1784C14.592 96.1784 14.336 96.0878 14.144 95.9064C13.9627 95.7144 13.872 95.4638 13.872 95.1544V86.5144H10.96C10.32 86.5144 10 86.2318 10 85.6664C10 85.1011 10.32 84.8184 10.96 84.8184H18.848C19.488 84.8184 19.808 85.1011 19.808 85.6664C19.808 86.2318 19.488 86.5144 18.848 86.5144H15.936V95.1544C15.936 95.4638 15.84 95.7144 15.648 95.9064C15.4667 96.0878 15.2213 96.1784 14.912 96.1784ZM22.0205 96.0984C21.7112 96.0984 21.4658 96.0131 21.2845 95.8424C21.1138 95.6718 21.0285 95.4318 21.0285 95.1224V85.7944C21.0285 85.4851 21.1138 85.2451 21.2845 85.0744C21.4658 84.9038 21.7112 84.8184 22.0205 84.8184H27.7965C28.1058 84.8184 28.3458 84.8878 28.5165 85.0264C28.6872 85.1651 28.7725 85.3624 28.7725 85.6184C28.7725 85.8851 28.6872 86.0931 28.5165 86.2424C28.3458 86.3811 28.1058 86.4504 27.7965 86.4504H23.0445V89.5544H27.4765C27.7858 89.5544 28.0258 89.6238 28.1965 89.7624C28.3672 89.9011 28.4525 90.1038 28.4525 90.3704C28.4525 90.6264 28.3672 90.8238 28.1965 90.9624C28.0258 91.1011 27.7858 91.1704 27.4765 91.1704H23.0445V94.4664H27.7965C28.1058 94.4664 28.3458 94.5411 28.5165 94.6904C28.6872 94.8291 28.7725 95.0318 28.7725 95.2984C28.7725 95.5544 28.6872 95.7518 28.5165 95.8904C28.3458 96.0291 28.1058 96.0984 27.7965 96.0984H22.0205ZM39.4744 94.8024C39.6024 94.9944 39.6664 95.1811 39.6664 95.3624C39.6664 95.6078 39.565 95.8104 39.3624 95.9704C39.1704 96.1304 38.941 96.2104 38.6744 96.2104C38.5037 96.2104 38.3384 96.1731 38.1784 96.0984C38.029 96.0131 37.901 95.8904 37.7944 95.7304L35.6664 92.4984C35.453 92.1571 35.2237 91.9171 34.9784 91.7784C34.7437 91.6398 34.4344 91.5704 34.0504 91.5704H32.4824V95.1544C32.4824 95.4744 32.3917 95.7304 32.2104 95.9224C32.029 96.1038 31.7837 96.1944 31.4744 96.1944C31.165 96.1944 30.9144 96.1038 30.7224 95.9224C30.541 95.7304 30.4504 95.4744 30.4504 95.1544V85.7944C30.4504 85.4851 30.5357 85.2451 30.7064 85.0744C30.8877 84.9038 31.133 84.8184 31.4424 84.8184H35.4424C36.7224 84.8184 37.693 85.1064 38.3544 85.6824C39.0264 86.2478 39.3624 87.0691 39.3624 88.1464C39.3624 89.0211 39.1117 89.7411 38.6104 90.3064C38.1197 90.8611 37.421 91.2184 36.5144 91.3784C36.8237 91.4531 37.0957 91.5864 37.3304 91.7784C37.565 91.9704 37.7944 92.2371 38.0184 92.5784L39.4744 94.8024ZM35.1544 89.9864C35.933 89.9864 36.5037 89.8424 36.8664 89.5544C37.229 89.2558 37.4104 88.8024 37.4104 88.1944C37.4104 87.5758 37.229 87.1278 36.8664 86.8504C36.5037 86.5624 35.933 86.4184 35.1544 86.4184H32.4664V89.9864H35.1544ZM50.5994 94.8024C50.7274 94.9944 50.7914 95.1811 50.7914 95.3624C50.7914 95.6078 50.69 95.8104 50.4874 95.9704C50.2954 96.1304 50.066 96.2104 49.7994 96.2104C49.6287 96.2104 49.4634 96.1731 49.3034 96.0984C49.154 96.0131 49.026 95.8904 48.9194 95.7304L46.7914 92.4984C46.578 92.1571 46.3487 91.9171 46.1034 91.7784C45.8687 91.6398 45.5594 91.5704 45.1754 91.5704H43.6074V95.1544C43.6074 95.4744 43.5167 95.7304 43.3354 95.9224C43.154 96.1038 42.9087 96.1944 42.5994 96.1944C42.29 96.1944 42.0394 96.1038 41.8474 95.9224C41.666 95.7304 41.5754 95.4744 41.5754 95.1544V85.7944C41.5754 85.4851 41.6607 85.2451 41.8314 85.0744C42.0127 84.9038 42.258 84.8184 42.5674 84.8184H46.5674C47.8474 84.8184 48.818 85.1064 49.4794 85.6824C50.1514 86.2478 50.4874 87.0691 50.4874 88.1464C50.4874 89.0211 50.2367 89.7411 49.7354 90.3064C49.2447 90.8611 48.546 91.2184 47.6394 91.3784C47.9487 91.4531 48.2207 91.5864 48.4554 91.7784C48.69 91.9704 48.9194 92.2371 49.1434 92.5784L50.5994 94.8024ZM46.2794 89.9864C47.058 89.9864 47.6287 89.8424 47.9914 89.5544C48.354 89.2558 48.5354 88.8024 48.5354 88.1944C48.5354 87.5758 48.354 87.1278 47.9914 86.8504C47.6287 86.5624 47.058 86.4184 46.2794 86.4184H43.5914V89.9864H46.2794ZM62.7994 94.8664C62.8634 95.0051 62.8954 95.1438 62.8954 95.2824C62.8954 95.5278 62.794 95.7358 62.5914 95.9064C62.3994 96.0771 62.1754 96.1624 61.9194 96.1624C61.7487 96.1624 61.5887 96.1198 61.4394 96.0344C61.29 95.9384 61.1727 95.7944 61.0874 95.6024L60.1274 93.4584H54.4954L53.5354 95.6024C53.45 95.7944 53.3327 95.9384 53.1834 96.0344C53.034 96.1198 52.8687 96.1624 52.6874 96.1624C52.442 96.1624 52.218 96.0771 52.0154 95.9064C51.8127 95.7358 51.7114 95.5278 51.7114 95.2824C51.7114 95.1438 51.7434 95.0051 51.8074 94.8664L56.2234 85.3784C56.3194 85.1651 56.4634 85.0051 56.6554 84.8984C56.858 84.7811 57.0714 84.7224 57.2954 84.7224C57.5194 84.7224 57.7274 84.7811 57.9194 84.8984C58.122 85.0051 58.2714 85.1651 58.3674 85.3784L62.7994 94.8664ZM55.1994 91.8584H59.4234L57.3114 87.1064L55.1994 91.8584Z" fill="white"/>
<path d="M14.144 95.9064L13.7805 96.2498L13.7903 96.2601L13.8007 96.27L14.144 95.9064ZM13.872 86.5144H14.372V86.0144H13.872V86.5144ZM15.936 86.5144V86.0144H15.436V86.5144H15.936ZM15.648 95.9064L15.2944 95.5529L15.2944 95.5529L15.648 95.9064ZM14.912 95.6784C14.6911 95.6784 14.5676 95.6188 14.4873 95.5429L13.8007 96.27C14.1044 96.5568 14.4929 96.6784 14.912 96.6784V95.6784ZM14.5075 95.5631C14.4287 95.4797 14.372 95.3595 14.372 95.1544H13.372C13.372 95.5681 13.4967 95.9492 13.7805 96.2498L14.5075 95.5631ZM14.372 95.1544V86.5144H13.372V95.1544H14.372ZM13.872 86.0144H10.96V87.0144H13.872V86.0144ZM10.96 86.0144C10.7029 86.0144 10.6034 85.9563 10.571 85.9277C10.5505 85.9096 10.5 85.8548 10.5 85.6664H9.5C9.5 86.0434 9.60954 86.4127 9.90898 86.6772C10.1966 86.9312 10.5771 87.0144 10.96 87.0144V86.0144ZM10.5 85.6664C10.5 85.4781 10.5505 85.4233 10.571 85.4052C10.6034 85.3766 10.7029 85.3184 10.96 85.3184V84.3184C10.5771 84.3184 10.1966 84.4017 9.90898 84.6557C9.60954 84.9202 9.5 85.2895 9.5 85.6664H10.5ZM10.96 85.3184H18.848V84.3184H10.96V85.3184ZM18.848 85.3184C19.1051 85.3184 19.2046 85.3766 19.237 85.4052C19.2575 85.4233 19.308 85.4781 19.308 85.6664H20.308C20.308 85.2895 20.1985 84.9202 19.899 84.6557C19.6114 84.4017 19.2309 84.3184 18.848 84.3184V85.3184ZM19.308 85.6664C19.308 85.8548 19.2575 85.9096 19.237 85.9277C19.2046 85.9563 19.1051 86.0144 18.848 86.0144V87.0144C19.2309 87.0144 19.6114 86.9312 19.899 86.6772C20.1985 86.4127 20.308 86.0434 20.308 85.6664H19.308ZM18.848 86.0144H15.936V87.0144H18.848V86.0144ZM15.436 86.5144V95.1544H16.436V86.5144H15.436ZM15.436 95.1544C15.436 95.3513 15.3794 95.468 15.2944 95.5529L16.0016 96.26C16.3006 95.9609 16.436 95.5763 16.436 95.1544H15.436ZM15.2944 95.5529C15.2257 95.6216 15.1179 95.6784 14.912 95.6784V96.6784C15.3247 96.6784 15.7076 96.5539 16.0016 96.26L15.2944 95.5529ZM21.2845 95.8424L20.9309 96.196L20.9363 96.2014L20.9418 96.2065L21.2845 95.8424ZM21.2845 85.0744L20.9418 84.7103L20.9363 84.7155L20.9309 84.7209L21.2845 85.0744ZM28.5165 85.0264L28.8318 84.6384L28.8318 84.6384L28.5165 85.0264ZM28.5165 86.2424L28.8318 86.6305L28.8389 86.6247L28.8458 86.6187L28.5165 86.2424ZM23.0445 86.4504V85.9504H22.5445V86.4504H23.0445ZM23.0445 89.5544H22.5445V90.0544H23.0445V89.5544ZM28.1965 89.7624L28.5118 89.3744L28.5118 89.3744L28.1965 89.7624ZM28.1965 90.9624L28.5118 91.3505L28.5118 91.3505L28.1965 90.9624ZM23.0445 91.1704V90.6704H22.5445V91.1704H23.0445ZM23.0445 94.4664H22.5445V94.9664H23.0445V94.4664ZM28.5165 94.6904L28.1872 95.0667L28.1941 95.0727L28.2012 95.0785L28.5165 94.6904ZM28.5165 95.8904L28.8318 96.2785L28.8318 96.2785L28.5165 95.8904ZM22.0205 95.5984C21.8062 95.5984 21.6946 95.5418 21.6272 95.4783L20.9418 96.2065C21.237 96.4844 21.6162 96.5984 22.0205 96.5984V95.5984ZM21.6381 95.4889C21.5856 95.4364 21.5285 95.3383 21.5285 95.1224H20.5285C20.5285 95.5253 20.6421 95.9071 20.9309 96.196L21.6381 95.4889ZM21.5285 95.1224V85.7944H20.5285V95.1224H21.5285ZM21.5285 85.7944C21.5285 85.5786 21.5856 85.4805 21.6381 85.428L20.9309 84.7209C20.6421 85.0098 20.5285 85.3916 20.5285 85.7944H21.5285ZM21.6272 85.4385C21.6946 85.3751 21.8062 85.3184 22.0205 85.3184V84.3184C21.6162 84.3184 21.237 84.4325 20.9418 84.7103L21.6272 85.4385ZM22.0205 85.3184H27.7965V84.3184H22.0205V85.3184ZM27.7965 85.3184C28.0369 85.3184 28.1498 85.3727 28.2012 85.4145L28.8318 84.6384C28.5419 84.4028 28.1747 84.3184 27.7965 84.3184V85.3184ZM28.2012 85.4145C28.2351 85.4421 28.2725 85.4854 28.2725 85.6184H29.2725C29.2725 85.2395 29.1392 84.8882 28.8318 84.6384L28.2012 85.4145ZM28.2725 85.6184C28.2725 85.7689 28.23 85.8287 28.1872 85.8662L28.8458 86.6187C29.1443 86.3575 29.2725 86.0014 29.2725 85.6184H28.2725ZM28.2012 85.8544C28.1498 85.8962 28.0369 85.9504 27.7965 85.9504V86.9504C28.1747 86.9504 28.5419 86.866 28.8318 86.6305L28.2012 85.8544ZM27.7965 85.9504H23.0445V86.9504H27.7965V85.9504ZM22.5445 86.4504V89.5544H23.5445V86.4504H22.5445ZM23.0445 90.0544H27.4765V89.0544H23.0445V90.0544ZM27.4765 90.0544C27.7169 90.0544 27.8298 90.1087 27.8812 90.1505L28.5118 89.3744C28.2219 89.1388 27.8547 89.0544 27.4765 89.0544V90.0544ZM27.8812 90.1505C27.9101 90.174 27.9525 90.219 27.9525 90.3704H28.9525C28.9525 89.9886 28.8242 89.6283 28.5118 89.3744L27.8812 90.1505ZM27.9525 90.3704C27.9525 90.5035 27.9151 90.5468 27.8812 90.5744L28.5118 91.3505C28.8192 91.1007 28.9525 90.7494 28.9525 90.3704H27.9525ZM27.8812 90.5744C27.8298 90.6162 27.7169 90.6704 27.4765 90.6704V91.6704C27.8547 91.6704 28.2219 91.586 28.5118 91.3505L27.8812 90.5744ZM27.4765 90.6704H23.0445V91.6704H27.4765V90.6704ZM22.5445 91.1704V94.4664H23.5445V91.1704H22.5445ZM23.0445 94.9664H27.7965V93.9664H23.0445V94.9664ZM27.7965 94.9664C28.029 94.9664 28.1363 95.0222 28.1872 95.0667L28.8458 94.3142C28.5554 94.0601 28.1826 93.9664 27.7965 93.9664V94.9664ZM28.2012 95.0785C28.2301 95.102 28.2725 95.147 28.2725 95.2984H29.2725C29.2725 94.9166 29.1442 94.5563 28.8318 94.3024L28.2012 95.0785ZM28.2725 95.2984C28.2725 95.4315 28.2351 95.4748 28.2012 95.5024L28.8318 96.2785C29.1392 96.0287 29.2725 95.6774 29.2725 95.2984H28.2725ZM28.2012 95.5024C28.1498 95.5442 28.0369 95.5984 27.7965 95.5984V96.5984C28.1747 96.5984 28.5419 96.514 28.8318 96.2785L28.2012 95.5024ZM27.7965 95.5984H22.0205V96.5984H27.7965V95.5984ZM39.4744 94.8024L39.056 95.0763L39.0584 95.0798L39.4744 94.8024ZM39.3624 95.9704L39.0524 95.5779L39.0423 95.5863L39.3624 95.9704ZM38.1784 96.0984L37.9303 96.5326L37.9482 96.5428L37.9669 96.5515L38.1784 96.0984ZM37.7944 95.7304L37.3768 96.0054L37.3784 96.0078L37.7944 95.7304ZM35.6664 92.4984L35.2423 92.7635L35.2488 92.7734L35.6664 92.4984ZM34.9784 91.7784L34.724 92.209L34.7323 92.2137L34.9784 91.7784ZM32.4824 91.5704V91.0704H31.9824V91.5704H32.4824ZM32.2104 95.9224L32.5639 96.276L32.569 96.271L32.5739 96.2658L32.2104 95.9224ZM30.7224 95.9224L30.3589 96.2658L30.3687 96.2761L30.3791 96.286L30.7224 95.9224ZM30.7064 85.0744L30.3637 84.7103L30.3582 84.7155L30.3528 84.7209L30.7064 85.0744ZM38.3544 85.6824L38.0259 86.0595L38.0325 86.0651L38.3544 85.6824ZM38.6104 90.3064L38.2363 89.9747L38.2359 89.9752L38.6104 90.3064ZM36.5144 91.3784L36.4275 90.8861L36.3971 91.8645L36.5144 91.3784ZM37.3304 91.7784L37.647 91.3915L37.647 91.3915L37.3304 91.7784ZM38.0184 92.5784L38.4367 92.3046L38.4364 92.3041L38.0184 92.5784ZM36.8664 89.5544L37.1774 89.9461L37.1842 89.9404L36.8664 89.5544ZM36.8664 86.8504L36.5554 87.2421L36.5627 87.2476L36.8664 86.8504ZM32.4664 86.4184V85.9184H31.9664V86.4184H32.4664ZM32.4664 89.9864H31.9664V90.4864H32.4664V89.9864ZM39.0584 95.0798C39.1465 95.212 39.1664 95.3036 39.1664 95.3624H40.1664C40.1664 95.0586 40.0583 94.7769 39.8904 94.5251L39.0584 95.0798ZM39.1664 95.3624C39.1664 95.4457 39.1424 95.5071 39.0526 95.578L39.6722 96.3629C39.9877 96.1138 40.1664 95.7699 40.1664 95.3624H39.1664ZM39.0423 95.5863C38.9464 95.6662 38.8325 95.7104 38.6744 95.7104V96.7104C39.0496 96.7104 39.3943 96.5947 39.6825 96.3546L39.0423 95.5863ZM38.6744 95.7104C38.5793 95.7104 38.486 95.6902 38.3898 95.6454L37.9669 96.5515C38.1908 96.656 38.4281 96.7104 38.6744 96.7104V95.7104ZM38.4264 95.6643C38.3521 95.6219 38.2791 95.5562 38.2104 95.4531L37.3784 96.0078C37.5229 96.2247 37.706 96.4044 37.9303 96.5326L38.4264 95.6643ZM38.212 95.4555L36.084 92.2235L35.2488 92.7734L37.3768 96.0054L38.212 95.4555ZM36.0904 92.2335C35.8506 91.8498 35.5668 91.5367 35.2244 91.3432L34.7323 92.2137C34.8806 92.2975 35.0555 92.4644 35.2424 92.7634L36.0904 92.2335ZM35.2327 91.348C34.8958 91.1489 34.4891 91.0704 34.0504 91.0704V92.0704C34.3796 92.0704 34.5916 92.1307 34.724 92.2089L35.2327 91.348ZM34.0504 91.0704H32.4824V92.0704H34.0504V91.0704ZM31.9824 91.5704V95.1544H32.9824V91.5704H31.9824ZM31.9824 95.1544C31.9824 95.3754 31.9227 95.4988 31.8469 95.5791L32.5739 96.2658C32.8607 95.9621 32.9824 95.5735 32.9824 95.1544H31.9824ZM31.8568 95.5689C31.7881 95.6376 31.6803 95.6944 31.4744 95.6944V96.6944C31.8871 96.6944 32.27 96.5699 32.5639 96.276L31.8568 95.5689ZM31.4744 95.6944C31.2693 95.6944 31.1492 95.6378 31.0657 95.5589L30.3791 96.286C30.6796 96.5698 31.0608 96.6944 31.4744 96.6944V95.6944ZM31.0859 95.5791C31.01 95.4988 30.9504 95.3754 30.9504 95.1544H29.9504C29.9504 95.5735 30.072 95.9621 30.3589 96.2658L31.0859 95.5791ZM30.9504 95.1544V85.7944H29.9504V95.1544H30.9504ZM30.9504 85.7944C30.9504 85.5786 31.0075 85.4805 31.0599 85.428L30.3528 84.7209C30.0639 85.0098 29.9504 85.3916 29.9504 85.7944H30.9504ZM31.0491 85.4385C31.1165 85.3751 31.2281 85.3184 31.4424 85.3184V84.3184C31.038 84.3184 30.6589 84.4325 30.3637 84.7103L31.0491 85.4385ZM31.4424 85.3184H35.4424V84.3184H31.4424V85.3184ZM35.4424 85.3184C36.656 85.3184 37.4896 85.5924 38.026 86.0595L38.6828 85.3054C37.8964 84.6205 36.7888 84.3184 35.4424 84.3184V85.3184ZM38.0325 86.0651C38.5663 86.5141 38.8624 87.1801 38.8624 88.1464H39.8624C39.8624 86.9581 39.4865 85.9815 38.6763 85.2998L38.0325 86.0651ZM38.8624 88.1464C38.8624 88.9193 38.6439 89.5151 38.2363 89.9747L38.9845 90.6382C39.5795 89.9671 39.8624 89.1229 39.8624 88.1464H38.8624ZM38.2359 89.9752C37.8369 90.4262 37.2506 90.7408 36.4275 90.8861L36.6013 91.8708C37.5915 91.6961 38.4026 91.296 38.9849 90.6377L38.2359 89.9752ZM36.3971 91.8645C36.6371 91.9224 36.8401 92.0234 37.0138 92.1654L37.647 91.3915C37.3513 91.1495 37.0104 90.9838 36.6317 90.8924L36.3971 91.8645ZM37.0138 92.1654C37.1981 92.3163 37.3952 92.5402 37.6004 92.8528L38.4364 92.3041C38.1935 91.934 37.9319 91.6246 37.647 91.3915L37.0138 92.1654ZM37.6 92.8523L39.0561 95.0763L39.8927 94.5286L38.4367 92.3046L37.6 92.8523ZM35.1544 90.4864C35.9757 90.4864 36.6836 90.3381 37.1773 89.946L36.5554 89.1629C36.3238 89.3468 35.8904 89.4864 35.1544 89.4864V90.4864ZM37.1842 89.9404C37.6944 89.5203 37.9104 88.9045 37.9104 88.1944H36.9104C36.9104 88.7004 36.7637 88.9913 36.5485 89.1685L37.1842 89.9404ZM37.9104 88.1944C37.9104 87.4795 37.6971 86.8562 37.1701 86.4533L36.5627 87.2476C36.761 87.3993 36.9104 87.6721 36.9104 88.1944H37.9104ZM37.1773 86.4589C36.6836 86.0668 35.9757 85.9184 35.1544 85.9184V86.9184C35.8904 86.9184 36.3238 87.0581 36.5554 87.242L37.1773 86.4589ZM35.1544 85.9184H32.4664V86.9184H35.1544V85.9184ZM31.9664 86.4184V89.9864H32.9664V86.4184H31.9664ZM32.4664 90.4864H35.1544V89.4864H32.4664V90.4864ZM50.5994 94.8024L50.181 95.0763L50.1834 95.0798L50.5994 94.8024ZM50.4874 95.9704L50.1774 95.5779L50.1673 95.5863L50.4874 95.9704ZM49.3034 96.0984L49.0553 96.5326L49.0732 96.5428L49.0919 96.5515L49.3034 96.0984ZM48.9194 95.7304L48.5018 96.0054L48.5034 96.0078L48.9194 95.7304ZM46.7914 92.4984L46.3673 92.7635L46.3738 92.7734L46.7914 92.4984ZM46.1034 91.7784L45.849 92.209L45.8573 92.2137L46.1034 91.7784ZM43.6074 91.5704V91.0704H43.1074V91.5704H43.6074ZM43.3354 95.9224L43.6889 96.276L43.694 96.271L43.6989 96.2658L43.3354 95.9224ZM41.8474 95.9224L41.4839 96.2658L41.4937 96.2761L41.5041 96.286L41.8474 95.9224ZM41.8314 85.0744L41.4887 84.7103L41.4832 84.7155L41.4778 84.7209L41.8314 85.0744ZM49.4794 85.6824L49.1509 86.0595L49.1575 86.0651L49.4794 85.6824ZM49.7354 90.3064L49.3613 89.9747L49.3609 89.9752L49.7354 90.3064ZM47.6394 91.3784L47.5525 90.8861L47.5221 91.8645L47.6394 91.3784ZM48.4554 91.7784L48.772 91.3915L48.772 91.3915L48.4554 91.7784ZM49.1434 92.5784L49.5617 92.3046L49.5614 92.3041L49.1434 92.5784ZM47.9914 89.5544L48.3024 89.9461L48.3092 89.9404L47.9914 89.5544ZM47.9914 86.8504L47.6804 87.2421L47.6877 87.2476L47.9914 86.8504ZM43.5914 86.4184V85.9184H43.0914V86.4184H43.5914ZM43.5914 89.9864H43.0914V90.4864H43.5914V89.9864ZM50.1834 95.0798C50.2715 95.212 50.2914 95.3036 50.2914 95.3624H51.2914C51.2914 95.0586 51.1833 94.7769 51.0154 94.5251L50.1834 95.0798ZM50.2914 95.3624C50.2914 95.4457 50.2674 95.5071 50.1776 95.578L50.7972 96.3629C51.1127 96.1138 51.2914 95.7699 51.2914 95.3624H50.2914ZM50.1673 95.5863C50.0714 95.6662 49.9575 95.7104 49.7994 95.7104V96.7104C50.1746 96.7104 50.5193 96.5947 50.8075 96.3546L50.1673 95.5863ZM49.7994 95.7104C49.7043 95.7104 49.611 95.6902 49.5148 95.6454L49.0919 96.5515C49.3158 96.656 49.5531 96.7104 49.7994 96.7104V95.7104ZM49.5514 95.6643C49.4771 95.6219 49.4041 95.5562 49.3354 95.4531L48.5034 96.0078C48.6479 96.2247 48.831 96.4044 49.0553 96.5326L49.5514 95.6643ZM49.337 95.4555L47.209 92.2235L46.3738 92.7734L48.5018 96.0054L49.337 95.4555ZM47.2154 92.2335C46.9756 91.8498 46.6918 91.5367 46.3494 91.3432L45.8573 92.2137C46.0056 92.2975 46.1805 92.4644 46.3674 92.7634L47.2154 92.2335ZM46.3577 91.348C46.0208 91.1489 45.6141 91.0704 45.1754 91.0704V92.0704C45.5046 92.0704 45.7166 92.1307 45.849 92.2089L46.3577 91.348ZM45.1754 91.0704H43.6074V92.0704H45.1754V91.0704ZM43.1074 91.5704V95.1544H44.1074V91.5704H43.1074ZM43.1074 95.1544C43.1074 95.3754 43.0477 95.4988 42.9719 95.5791L43.6989 96.2658C43.9857 95.9621 44.1074 95.5735 44.1074 95.1544H43.1074ZM42.9818 95.5689C42.9131 95.6376 42.8053 95.6944 42.5994 95.6944V96.6944C43.0121 96.6944 43.395 96.5699 43.6889 96.276L42.9818 95.5689ZM42.5994 95.6944C42.3943 95.6944 42.2742 95.6378 42.1907 95.5589L41.5041 96.286C41.8046 96.5698 42.1858 96.6944 42.5994 96.6944V95.6944ZM42.2109 95.5791C42.135 95.4988 42.0754 95.3754 42.0754 95.1544H41.0754C41.0754 95.5735 41.197 95.9621 41.4839 96.2658L42.2109 95.5791ZM42.0754 95.1544V85.7944H41.0754V95.1544H42.0754ZM42.0754 85.7944C42.0754 85.5786 42.1325 85.4805 42.1849 85.428L41.4778 84.7209C41.1889 85.0098 41.0754 85.3916 41.0754 85.7944H42.0754ZM42.1741 85.4385C42.2415 85.3751 42.3531 85.3184 42.5674 85.3184V84.3184C42.163 84.3184 41.7839 84.4325 41.4887 84.7103L42.1741 85.4385ZM42.5674 85.3184H46.5674V84.3184H42.5674V85.3184ZM46.5674 85.3184C47.781 85.3184 48.6146 85.5924 49.151 86.0595L49.8078 85.3054C49.0214 84.6205 47.9138 84.3184 46.5674 84.3184V85.3184ZM49.1575 86.0651C49.6913 86.5141 49.9874 87.1801 49.9874 88.1464H50.9874C50.9874 86.9581 50.6115 85.9815 49.8013 85.2998L49.1575 86.0651ZM49.9874 88.1464C49.9874 88.9193 49.7689 89.5151 49.3613 89.9747L50.1095 90.6382C50.7045 89.9671 50.9874 89.1229 50.9874 88.1464H49.9874ZM49.3609 89.9752C48.9619 90.4262 48.3756 90.7408 47.5525 90.8861L47.7263 91.8708C48.7165 91.6961 49.5276 91.296 50.1099 90.6377L49.3609 89.9752ZM47.5221 91.8645C47.7621 91.9224 47.9651 92.0234 48.1388 92.1654L48.772 91.3915C48.4763 91.1495 48.1354 90.9838 47.7567 90.8924L47.5221 91.8645ZM48.1388 92.1654C48.3231 92.3163 48.5202 92.5402 48.7254 92.8528L49.5614 92.3041C49.3185 91.934 49.0569 91.6246 48.772 91.3915L48.1388 92.1654ZM48.725 92.8523L50.1811 95.0763L51.0177 94.5286L49.5617 92.3046L48.725 92.8523ZM46.2794 90.4864C47.1007 90.4864 47.8086 90.3381 48.3023 89.946L47.6804 89.1629C47.4488 89.3468 47.0154 89.4864 46.2794 89.4864V90.4864ZM48.3092 89.9404C48.8194 89.5203 49.0354 88.9045 49.0354 88.1944H48.0354C48.0354 88.7004 47.8887 88.9913 47.6735 89.1685L48.3092 89.9404ZM49.0354 88.1944C49.0354 87.4795 48.8221 86.8562 48.2951 86.4533L47.6877 87.2476C47.886 87.3993 48.0354 87.6721 48.0354 88.1944H49.0354ZM48.3023 86.4589C47.8086 86.0668 47.1007 85.9184 46.2794 85.9184V86.9184C47.0154 86.9184 47.4488 87.0581 47.6804 87.242L48.3023 86.4589ZM46.2794 85.9184H43.5914V86.9184H46.2794V85.9184ZM43.0914 86.4184V89.9864H44.0914V86.4184H43.0914ZM43.5914 90.4864H46.2794V89.4864H43.5914V90.4864ZM62.7994 94.8664L63.2534 94.6569L63.2524 94.6548L62.7994 94.8664ZM62.5914 95.9064L62.2692 95.5239L62.2592 95.5327L62.5914 95.9064ZM61.4394 96.0344L61.169 96.455L61.18 96.4621L61.1913 96.4686L61.4394 96.0344ZM61.0874 95.6024L61.5443 95.3994L61.5437 95.3981L61.0874 95.6024ZM60.1274 93.4584L60.5837 93.2541L60.4513 92.9584H60.1274V93.4584ZM54.4954 93.4584V92.9584H54.1714L54.039 93.2541L54.4954 93.4584ZM53.5354 95.6024L53.079 95.3981L53.0785 95.3994L53.5354 95.6024ZM53.1834 96.0344L53.4314 96.4686L53.4428 96.4621L53.4538 96.455L53.1834 96.0344ZM52.0154 95.9064L51.6933 96.2889L51.6933 96.2889L52.0154 95.9064ZM51.8074 94.8664L51.3541 94.6555L51.3534 94.6569L51.8074 94.8664ZM56.2234 85.3784L56.6767 85.5894L56.6793 85.5836L56.2234 85.3784ZM56.6554 84.8984L56.8982 85.3356L56.9059 85.3312L56.6554 84.8984ZM57.9194 84.8984L57.6587 85.3251L57.6723 85.3334L57.6865 85.3409L57.9194 84.8984ZM58.3674 85.3784L57.9114 85.5837L57.9144 85.5901L58.3674 85.3784ZM55.1994 91.8584L54.7425 91.6554L54.43 92.3584H55.1994V91.8584ZM59.4234 91.8584V92.3584H60.1928L59.8803 91.6554L59.4234 91.8584ZM57.3114 87.1064L57.7683 86.9034L57.3114 85.8753L56.8545 86.9034L57.3114 87.1064ZM62.3454 95.076C62.3822 95.1557 62.3954 95.2232 62.3954 95.2824H63.3954C63.3954 95.0644 63.3446 94.8546 63.2534 94.6569L62.3454 95.076ZM62.3954 95.2824C62.3954 95.3674 62.3694 95.4397 62.2693 95.524L62.9134 96.2889C63.2187 96.0319 63.3954 95.6882 63.3954 95.2824H62.3954ZM62.2592 95.5327C62.1584 95.6224 62.0524 95.6624 61.9194 95.6624V96.6624C62.2983 96.6624 62.6404 96.5319 62.9236 96.2802L62.2592 95.5327ZM61.9194 95.6624C61.8364 95.6624 61.7618 95.6428 61.6874 95.6003L61.1913 96.4686C61.4156 96.5967 61.661 96.6624 61.9194 96.6624V95.6624ZM61.7098 95.6139C61.6566 95.5797 61.5974 95.5189 61.5443 95.3994L60.6305 95.8055C60.748 96.07 60.9235 96.2972 61.169 96.455L61.7098 95.6139ZM61.5437 95.3981L60.5837 93.2541L59.671 93.6628L60.631 95.8068L61.5437 95.3981ZM60.1274 92.9584H54.4954V93.9584H60.1274V92.9584ZM54.039 93.2541L53.079 95.3981L53.9917 95.8068L54.9517 93.6628L54.039 93.2541ZM53.0785 95.3994C53.0254 95.5189 52.9662 95.5797 52.913 95.6139L53.4538 96.455C53.6992 96.2972 53.8747 96.07 53.9923 95.8055L53.0785 95.3994ZM52.9353 95.6003C52.8657 95.6401 52.7866 95.6624 52.6874 95.6624V96.6624C52.9508 96.6624 53.2024 96.5994 53.4314 96.4686L52.9353 95.6003ZM52.6874 95.6624C52.5697 95.6624 52.4577 95.6253 52.3374 95.524L51.6933 96.2889C51.9784 96.5289 52.3144 96.6624 52.6874 96.6624V95.6624ZM52.3374 95.524C52.2373 95.4397 52.2114 95.3674 52.2114 95.2824H51.2114C51.2114 95.6882 51.3881 96.0319 51.6933 96.2889L52.3374 95.524ZM52.2114 95.2824C52.2114 95.2232 52.2246 95.1557 52.2614 95.076L51.3534 94.6569C51.2622 94.8546 51.2114 95.0644 51.2114 95.2824H52.2114ZM52.2607 95.0774L56.6767 85.5894L55.7701 85.1675L51.3541 94.6555L52.2607 95.0774ZM56.6793 85.5836C56.7342 85.4617 56.8067 85.3864 56.8982 85.3355L56.4126 84.4614C56.1201 84.6239 55.9046 84.8685 55.7674 85.1733L56.6793 85.5836ZM56.9059 85.3312C57.036 85.2558 57.1634 85.2224 57.2954 85.2224V84.2224C56.9793 84.2224 56.6801 84.3064 56.4049 84.4657L56.9059 85.3312ZM57.2954 85.2224C57.4269 85.2224 57.5448 85.2555 57.6587 85.3251L58.1801 84.4718C57.91 84.3067 57.6118 84.2224 57.2954 84.2224V85.2224ZM57.6865 85.3409C57.7881 85.3944 57.8601 85.4697 57.9114 85.5836L58.8233 85.1733C58.6826 84.8605 58.4559 84.6158 58.1522 84.456L57.6865 85.3409ZM57.9144 85.5901L62.3464 95.0781L63.2524 94.6548L58.8204 85.1668L57.9144 85.5901ZM55.1994 92.3584H59.4234V91.3584H55.1994V92.3584ZM59.8803 91.6554L57.7683 86.9034L56.8545 87.3095L58.9665 92.0615L59.8803 91.6554ZM56.8545 86.9034L54.7425 91.6554L55.6563 92.0615L57.7683 87.3095L56.8545 86.9034Z" fill="#DBAB61"/>
</svg>
